# xmcd
#
# Track frame offsets:
#	150
#	30111
#	50688
#	84062
#	114358
#	128827
#	154403
#	169220
#	186923
#	214004
#	231628
#	251796
#	298504
#	315874
#
# Disc length: 4551 seconds
#
# Revision: 0
# Processed by: cddbd v1.5.2PL0 Copyright (c) Steve Scherf et al.
# Submitted via: EasyCDDAExtractor 8.0.1.1
#
DISCID=bb11c50e
DTITLE=Various Artist - E Samba
DYEAR=2003
DGENRE=
TTITLE0=Junior Jack - E Samba (original edit)
TTITLE1=\nDel Gago - Cofee Beats
TTITLE2=DJ Pufo - Mon Amor Pufos (main mix)
TTITLE3=DJ D - Shake It Baby (junior jack remix)
TTITLE4=Maphia LTD - Chasing (junior jack and kid creme remix)
TTITLE5=Shakedown - At Night (kid creme remix)
TTITLE6=Martin - Madan (latino mix)
TTITLE7=Barillas - Andare (extended club mix)
TTITLE8=Junior Jack - E Samba (main mix)
TTITLE9=Dimetrious - Better Love (axwell dub)
TTITLE10=Junior Jack - Only Together
TTITLE11=DJ Gregory - Elle
TTITLE12=Junior Jack - E Samba (dub mix)
TTITLE13=Rene - Colabria (junior jack and kid creme remix)
EXTD=
EXTT0=
EXTT1=
EXTT2=
EXTT3=
EXTT4=
EXTT5=
EXTT6=
EXTT7=
EXTT8=
EXTT9=
EXTT10=
EXTT11=
EXTT12=
EXTT13=
PLAYORDER=
